<svg xmlns="http://www.w3.org/2000/svg" width="1840" height="1840" viewBox="73.12 90.62 1840 1840"><path d="M993.12 90.62c-508.1 0-920 411.9-920 920s411.9 920 920 920 920-411.9 920-920-411.88-920-920-920zm107.08 1739.4l-6.5-38.68-93.42-550.84c-.4-2.38.02-4.14.44-6.62l6.64-39.08 10.96-64.66c.04-.32.02-.94.2-1.22 2.34-.46 2.36-2.08 3.34-4.24l3.94-8.8c.66-1.48 1.32-4.4 2.5-5.58 2.96-1 6.8-3.92 9.76-2.6l8.04 3.58 7.6 3.4c1.88.84 5.9-1.58 6.6-3.42l89.26 63.02c1.52 1.1 2.22 2.12 3.32 3.68l345.52 486.44c-113.06 87.52-249.42 146.36-398.2 165.62zm-926.44-711.98l6.72-1.16 586.62-99.52c1.04-.18 2.7.44 3.72.62l108.38 18.382-2.58 3.16c-.34.42 1.32 6.94 1.88 7.1l8.5 2.92 9.54 3.26c2.16.74 5.26 7.34 4.54 9.54-1.32 4.02-2.08 9.72-4.54 13.16l-58.72 82.72c-2.26 3.2-4.7 8.64-7.96 10.94l-7.22 5.12-482.58 342.56c-87.84-113.14-146.94-249.74-166.3-398.8zm713.9-927.1l100.18 590.32c.3 1.78.58 3.04.28 4.8l-20.18 119-6.68-4.54c-1.92-1.3-5.22-4.66-7.54-5.1-1.12.4-6.48 1.72-6.76 2.86l-.78 3.18-2.86 11.9c-.74 3.06-2.42 8.06-6.16 5.42l-97.34-69.14c-.84-.6-2.28-1.24-2.9-2.08l-4.12-5.82-344.5-485.32c113.36-87.62 250.14-146.48 399.36-165.48zm105.46-6.68c32.54 0 64.6 1.94 96.16 5.6l-95.64 563.72-95.68-563.8c31.22-3.6 62.96-5.52 95.16-5.52zM1812.8 905.2l-4.52.78-586.92 99.58c-1.4.24-3.62-.6-4.98-.84l-117.98-20.04c-1.5-.26-1.2.08-1.68-1.8-.32-1.2-2.26-5.48-1.72-6.48l1.98-3.58 4.64-8.44c.72-1.34 2.84-3.82 2.94-5.38-.42-.92-2.4-6.32-3.32-6.46l-11.82-1.7 42.34-59.64 23.04-32.48c1.48-2.08 2.62-4.16 4.68-5.64l488.32-346.66c87.38 113.3 146.02 249.82 165 398.78zm-697.74 92.82l75.38 12.8-87.24 14.78c-2.36.42-2.36.68-3.96-1.44.34-2.5-.42-7.88 1.56-9.52l6.18-5.2 6.36-5.32c2.52-2.12 2.08-2.48 1.72-6.1zm-36.14-51.58c-2.78-3.72-2.9-3.9-2.32-8.16l1.5-11.32c.62-4.6.46-4.56-3.4-7.98-2.32-2.06-5.86-.16-8.76.5l64.72-45.94-51.74 72.9zm9.18 139.66l45.2 63.66-70.98-50.4c-1.44-1.02-.14-6.44-.06-8.16 2-1.66 4.98-6.08 7.66-5.96l7.5.32c1.48.02 9.82-.7 10.68.54zm552.7-588.64L1178.12 825.9l48.02-67.66 280.44-395.06c49.7 39.46 94.76 84.54 134.22 134.28zm-142.96-141.14c-.06.06-.1.12-.14.18l-346.6 488.32c-2.02 2.82-6.38 4.8-9.14 6.76l-35.24 25-55.66 39.52c-.54.4-2.66 2.46-3.38 2.4-3.72-2.18-4.04-11.44-4.98-15.42-.32-1.26-.42-4.04-1.24-5.08-3.36-1.42-5.58-3.36-8.64-1.3l-13.36 9.06-19.14-112.78c-.5-2.98-1.78-6.48-1.26-9.52l100.42-592.02c.02-.12.04-.26.06-.4 148.8 19.16 285.16 77.9 398.3 165.28zm-500 532.2c-2.1-.06-6.44-1.1-7.78.82l-4.04 5.82c-1.48 2.14-4.94 9.62-7.64 10.04l15.24-89.84 15.06 88.84-10.84-15.68zm10.5 238.68l-13.66 80.38-13.28-78.38c-.1-.56-1.12-3.98-.68-4.44l9.06-8.96c2.24.1 7.92-1 9.48.54l5.46 5.4c1.9 1.92 4.06 2.8 3.62 5.46zM911.1 932.62l1.06 7.9c.44 3.3-1.96 4.9-3.88 7.58l-53.18-74.9 64.14 45.52-4.14-.96c-2.04 1.78-5.52 3.44-5.14 6.36l1.14 8.5zm6.8 152.62c.42-.02 1.3-.22 1.7-.06 1.06 1.04 6.54 4.86 6.6 6.14l.44 8.62c.06 1.3-3.32 2.88-4.26 3.56l-66.58 47.24 46.02-64.82 16.08-.68zM523.04 423.26l220.68 310.9 65.16 91.78 2.52 3.58-466.62-331.24c39.72-50.22 85.16-95.7 135.34-135.48l42.92 60.46zm-184.6 83.18l480.24 340.9c5.46 3.88 10.12 6.66 13.96 12.08l65.04 91.64-8.9 1.28c-2.88.42-5.58 5.38-4.16 7.98l5.1 9.26c1.04 1.9 3.58 4.9 3.88 7.06-.76 2.32-1.16 8.96-3.98 9.44l-2.88.48-105.04 17.8c-4.18.72-10.64 3.16-14.92 2.44l-52.06-8.84L173.3 906.1c18.88-149.28 77.6-286.16 165.14-399.66zm536.16 497.24l13.8 11.58c.1 1.7 2.32 12.56-2.2 11.82l-88.22-14.98 75.28-12.78c-.22 2.76-.54 2.78 1.34 4.36zM245 928.76l491.18 83.36-81.38 13.8-375.8 63.78-106.5 18.06c-3.74-31.88-5.72-64.28-5.72-97.16 0-31.86 1.86-63.28 5.38-94.18L245 928.76zm101.44 596.22l465.7-330.56-330.318 465.32c-50.16-39.54-95.58-84.82-135.38-134.76zM490 1666.06l26.66-37.54 215.62-303.78L837.1 1177.1c1.92-2.7 5.62-4.42 8.26-6.26l35.96-25.54 46.36-32.88c2.1-1.5 3.9 3.46 5.76 2.66l8.24-3.6 9.24-4.02c1.88-.82 8.8 1.88 9.66 3.76l7.78 17.4c.6 1.34 2.38-.36 2.7 1.5l.78 4.58 17.22 101.48c.98 5.82-1.32 12.48-2.3 18.22l-97.74 576.04c-149.02-18.78-285.64-77.22-399.02-164.38zm409.28 165.52l95.4-562.22 95.38 561.82a829.44 829.44 0 0 1-96.92 5.68c-31.758.04-63.058-1.8-93.858-5.28zm566.1-231.9L1177 1193.42l464.36 329.62c-39.56 49.96-84.74 95.24-134.64 134.86l-41.34-58.22zm182.32-84.8l-2.8-2-486-345c-1.04-.72-1.9-2.62-2.62-3.64l-9.04-12.76-56.82-80.04c-1.26-1.78-1.68-5.04-2.34-7.08-.3-.88-1.12-2.3-1.08-3.24.8-1.44 2.88-7.64 4.24-8.1l15.44-5.28c3.28-1.14 3.32-.9 4.4-4.58 1.2-4.24-.12-4.72-2.78-7.96l109.72-18.62c2.3-.4 3.5-.52 5.7-.14l588.98 99.96c-19 148.86-77.66 285.3-165 398.48zm95.7-420.7l-491.18-83.38 561.72-95.34c3.58 31.22 5.46 62.92 5.46 95.1 0 32.32-1.92 64.2-5.52 95.56l-70.478-11.94z" fill="#2E87C4"/></svg>