<?xml version="1.0" encoding="utf-8"?>
<!-- Generator: Adobe Illustrator 15.0.2, SVG Export Plug-In . SVG Version: 6.00 Build 0)  -->
<!DOCTYPE svg PUBLIC "-//W3C//DTD SVG 1.1//EN" "http://www.w3.org/Graphics/SVG/1.1/DTD/svg11.dtd">
<svg version="1.1" id="Layer_1" xmlns="http://www.w3.org/2000/svg" xmlns:xlink="http://www.w3.org/1999/xlink" x="0px" y="0px"
	 width="1656.324px" height="495.337px" viewBox="0 0 1656.324 495.337" enable-background="new 0 0 1656.324 495.337"
	 xml:space="preserve">
<rect y="19.147" fill="none" width="732.706" height="476.19"/>
<text transform="matrix(1 0 0 1 0 469.147)" fill="#267ABD" font-family="'Heebo-Thin'" font-size="600">vel  </text>
<path id="wheel" fill="#454545" d="M868.703,150.753c-89.456,0-161.977,72.52-161.977,161.977c0,89.456,72.521,161.976,161.977,161.976
	c89.455,0,161.976-72.52,161.976-161.976C1030.679,223.272,958.163,150.753,868.703,150.753z M887.555,457
	c-0.381-2.265-0.764-4.564-1.145-6.81c-1.637-9.641-3.274-19.314-4.912-28.958c-1.988-11.744-3.985-23.505-5.975-35.248
	c-1.528-8.986-3.049-17.976-4.574-26.962c-0.328-1.937-0.658-3.876-0.986-5.814c-0.07-0.418,0.005-0.728,0.077-1.165
	c0.393-2.292,0.779-4.588,1.17-6.88c0.645-3.796,1.285-7.588,1.929-11.385c0.007-0.056,0.004-0.165,0.036-0.214
	c0.411-0.082,0.415-0.366,0.587-0.746c0.229-0.518,0.463-1.036,0.694-1.549c0.117-0.261,0.232-0.775,0.44-0.983
	c0.521-0.176,1.196-0.689,1.719-0.458c0.475,0.212,0.946,0.419,1.415,0.631c0.447,0.2,0.891,0.397,1.338,0.598
	c0.331,0.148,1.038-0.277,1.162-0.603c3.582,2.529,7.158,5.057,10.739,7.582c1.659,1.172,3.317,2.345,4.977,3.515
	c0.267,0.193,0.391,0.373,0.584,0.647c3.57,5.027,7.14,10.056,10.716,15.085c6.506,9.162,13.01,18.321,19.518,27.483
	c6.585,9.271,13.169,18.542,19.757,27.811c3.609,5.088,7.226,10.179,10.843,15.264C937.757,443.25,913.749,453.609,887.555,457z
	 M724.445,331.648c0.395-0.07,0.789-0.133,1.183-0.205c7.691-1.303,15.377-2.609,23.067-3.911
	c11.539-1.962,23.082-3.916,34.624-5.877c10.537-1.79,21.068-3.575,31.6-5.359c4.663-0.792,9.324-1.582,13.99-2.374
	c0.183-0.032,0.476,0.078,0.655,0.109c0.711,0.12,1.423,0.244,2.134,0.362c2.271,0.384,4.543,0.771,6.811,1.156
	c3.381,0.574,6.76,1.147,10.137,1.718c-0.151,0.186-0.302,0.37-0.454,0.556c-0.06,0.074,0.233,1.222,0.33,1.251
	c0.501,0.172,0.997,0.344,1.498,0.513c0.56,0.193,1.12,0.38,1.679,0.574c0.381,0.131,0.926,1.292,0.799,1.68
	c-0.231,0.707-0.365,1.711-0.799,2.317c-0.355,0.503-0.712,1-1.066,1.504c-3.092,4.352-6.18,8.708-9.271,13.059
	c-0.397,0.564-0.827,1.521-1.401,1.927c-0.426,0.299-0.849,0.602-1.271,0.902c-2.209,1.566-4.42,3.141-6.631,4.707
	c-8.12,5.764-16.236,11.525-24.356,17.289c-9.697,6.884-19.395,13.769-29.088,20.648c-7.254,5.152-14.509,10.299-21.761,15.448
	c-1.044,0.739-2.086,1.482-3.129,2.218C738.259,381.942,727.854,357.893,724.445,331.648z M850.135,168.423
	c0.362,2.133,0.726,4.27,1.089,6.408c1.604,9.455,3.211,18.913,4.813,28.366c1.993,11.755,3.99,23.505,5.986,35.258
	c1.557,9.187,3.116,18.375,4.677,27.564c0.358,2.113,0.714,4.222,1.074,6.334c0.053,0.313,0.102,0.535,0.05,0.845
	c-0.321,1.887-0.642,3.771-0.959,5.655c-0.865,5.099-1.732,10.197-2.595,15.296c-0.391-0.268-0.785-0.533-1.176-0.799
	c-0.338-0.229-0.92-0.821-1.328-0.898c-0.197,0.07-1.142,0.303-1.19,0.503c-0.046,0.187-0.088,0.373-0.137,0.561
	c-0.165,0.696-0.334,1.394-0.503,2.094c-0.131,0.54-0.427,1.42-1.085,0.955c-0.588-0.423-1.184-0.842-1.772-1.258
	c-4.437-3.151-8.877-6.302-13.313-9.454c-0.687-0.486-1.369-0.972-2.054-1.461c-0.148-0.106-0.4-0.218-0.511-0.367
	c-0.238-0.341-0.481-0.683-0.725-1.025c-1.475-2.077-2.948-4.154-4.422-6.232c-5.659-7.972-11.317-15.941-16.977-23.917
	c-6.896-9.708-13.785-19.419-20.68-29.127c-5.275-7.43-10.546-14.857-15.817-22.286c-0.92-1.292-1.839-2.588-2.758-3.884
	C799.782,182.131,823.862,171.767,850.135,168.423z M868.703,167.246c5.729,0,11.373,0.341,16.931,0.986
	c-0.719,4.233-1.438,8.465-2.153,12.698c-1.823,10.726-3.64,21.452-5.464,32.181c-1.919,11.317-3.842,22.634-5.762,33.955
	c-1.109,6.54-2.218,13.078-3.326,19.62c-0.047,0.265-0.09,0.529-0.135,0.797c-0.81-4.779-1.619-9.557-2.433-14.335
	c-1.824-10.743-3.648-21.487-5.469-32.226c-1.923-11.325-3.842-22.646-5.766-33.966c-1.06-6.248-2.118-12.493-3.178-18.737
	C857.445,167.584,863.034,167.246,868.703,167.246z M1013.017,294.176c-0.265,0.045-0.528,0.092-0.797,0.137
	c-7.657,1.299-15.316,2.599-22.969,3.895c-11.535,1.958-23.071,3.916-34.603,5.873c-10.55,1.789-21.1,3.581-31.648,5.37
	c-4.705,0.799-9.408,1.599-14.114,2.395c-0.246,0.042-0.637-0.106-0.875-0.148c-0.906-0.152-1.814-0.307-2.716-0.462
	c-2.778-0.472-5.557-0.943-8.335-1.416c-2.577-0.436-5.162-0.876-7.742-1.313c-0.663-0.112-1.321-0.222-1.979-0.338
	c-0.264-0.045-0.212,0.014-0.296-0.316c-0.056-0.212-0.398-0.965-0.303-1.142c0.117-0.211,0.233-0.422,0.348-0.63
	c0.275-0.497,0.547-0.993,0.818-1.486c0.126-0.236,0.5-0.673,0.517-0.948c-0.073-0.161-0.423-1.112-0.584-1.137
	c-0.226-0.035-0.458-0.066-0.687-0.099c-0.464-0.066-0.93-0.133-1.394-0.201c2.485-3.5,4.968-7,7.453-10.5
	c1.354-1.905,2.708-3.814,4.057-5.718c0.261-0.366,0.462-0.733,0.824-0.993c4.683-3.324,9.366-6.652,14.05-9.976
	c9.039-6.416,18.078-12.832,27.113-19.247c9.369-6.653,18.739-13.3,28.105-19.952c5.572-3.954,11.139-7.905,16.705-11.859
	C999.351,243.914,1009.675,267.95,1013.017,294.176z M890.171,310.518c4.424,0.75,8.849,1.503,13.272,2.254
	c-2.751,0.465-5.501,0.933-8.254,1.398c-1.82,0.31-3.638,0.62-5.458,0.926c-0.55,0.095-1.099,0.187-1.648,0.277
	c-0.414,0.075-0.414,0.121-0.697-0.253c0.061-0.44-0.073-1.387,0.274-1.676c0.363-0.302,0.726-0.609,1.089-0.916
	c0.373-0.31,0.746-0.623,1.119-0.936C890.313,311.219,890.234,311.155,890.171,310.518z M883.81,301.437
	c-0.49-0.655-0.512-0.687-0.41-1.437c0.085-0.663,0.181-1.328,0.265-1.993c0.109-0.81,0.081-0.803-0.598-1.405
	c-0.409-0.363-1.032-0.027-1.543,0.088c3.799-2.697,7.596-5.395,11.396-8.087C889.887,292.876,886.848,297.158,883.81,301.437z
	 M885.425,326.025c0.747,1.049,1.493,2.103,2.244,3.154c1.903,2.684,3.81,5.367,5.715,8.053c-2.392-1.697-4.778-3.395-7.174-5.091
	c-1.443-1.024-2.888-2.053-4.331-3.078c-0.334-0.232-0.661-0.469-0.992-0.704c-0.254-0.18-0.025-1.134-0.013-1.436
	c0.354-0.293,0.878-1.071,1.35-1.05c0.44,0.017,0.881,0.035,1.32,0.056C883.806,325.933,885.273,325.806,885.425,326.025z
	 M982.733,222.389c-3.472,2.465-6.946,4.93-10.42,7.398c-8.895,6.313-17.791,12.627-26.687,18.941
	c-9.332,6.627-18.665,13.25-28.001,19.877c-5.278,3.743-10.557,7.493-15.835,11.24c-0.172,0.123-0.349,0.247-0.517,0.369
	c2.816-3.971,5.638-7.943,8.454-11.912c6.324-8.905,12.646-17.814,18.968-26.719c6.628-9.335,13.255-18.67,19.882-28.008
	c3.51-4.94,7.019-9.887,10.524-14.827C967.853,205.695,975.787,213.631,982.733,222.389z M957.563,197.54
	c-0.01,0.01-0.017,0.021-0.024,0.031c-1.609,2.265-3.215,4.528-4.823,6.796c-5.808,8.183-11.621,16.37-17.427,24.553
	c-6.881,9.69-13.758,19.381-20.638,29.071c-5.074,7.156-10.155,14.307-15.233,21.465c-0.964,1.363-1.937,2.726-2.901,4.088
	c-0.354,0.497-1.123,0.846-1.609,1.19c-2.067,1.468-4.137,2.934-6.205,4.401c-3.267,2.321-6.531,4.634-9.798,6.958
	c-0.096,0.071-0.47,0.433-0.595,0.422c-0.655-0.383-0.713-2.013-0.878-2.714c-0.056-0.222-0.073-0.711-0.218-0.895
	c-0.592-0.25-0.982-0.591-1.521-0.229c-0.785,0.532-1.566,1.063-2.352,1.595c-0.712-4.184-1.42-8.367-2.128-12.55
	c-0.415-2.437-0.828-4.874-1.242-7.307c-0.089-0.525-0.313-1.141-0.223-1.676c0.923-5.429,1.842-10.863,2.765-16.3
	c1.838-10.841,3.68-21.687,5.518-32.532c1.934-11.391,3.87-22.783,5.8-34.177c1.2-7.075,2.401-14.148,3.598-21.223
	c0.004-0.021,0.007-0.045,0.012-0.07C913.637,171.813,937.645,182.155,957.563,197.54z M869.533,291.239
	c-0.369-0.01-1.133-0.193-1.369,0.145c-0.237,0.342-0.473,0.683-0.712,1.025c-0.26,0.376-0.869,1.694-1.344,1.768
	c0.894-5.271,1.788-10.542,2.682-15.818c0.885,5.211,1.769,10.427,2.651,15.642C870.808,293.081,870.171,292.158,869.533,291.239z
	 M871.382,333.262c-0.257,1.521-0.517,3.038-0.774,4.559c-0.543,3.198-1.087,6.391-1.63,9.592c-0.504-2.962-1.003-5.923-1.507-8.884
	c-0.278-1.637-0.557-3.274-0.831-4.916c-0.019-0.099-0.197-0.701-0.121-0.782c0.532-0.524,1.063-1.053,1.596-1.578
	c0.395,0.018,1.395-0.176,1.669,0.095c0.321,0.317,0.642,0.634,0.962,0.952C871.079,332.638,871.46,332.793,871.382,333.262z
	 M854.263,299.003c0.063,0.461,0.123,0.926,0.186,1.391c0.077,0.581-0.345,0.863-0.683,1.334c-3.12-4.397-6.24-8.792-9.363-13.187
	c3.765,2.673,7.529,5.346,11.293,8.014c-0.242-0.056-0.486-0.112-0.729-0.169c-0.358,0.313-0.972,0.605-0.905,1.121
	C854.128,298.007,854.194,298.503,854.263,299.003z M855.46,325.874c0.072-0.004,0.229-0.04,0.298-0.011
	c0.188,0.183,1.152,0.855,1.163,1.081c0.024,0.507,0.052,1.01,0.078,1.518c0.01,0.229-0.585,0.507-0.751,0.627
	c-0.771,0.545-1.538,1.091-2.311,1.637c-3.137,2.229-6.274,4.458-9.412,6.68c2.701-3.803,5.403-7.61,8.103-11.412
	C853.575,325.951,854.516,325.909,855.46,325.874z M785.939,209.325c6.304,8.881,12.61,17.765,18.916,26.649
	c6.645,9.363,13.289,18.726,19.937,28.089c3.824,5.387,7.649,10.775,11.474,16.158c0.147,0.212,0.299,0.419,0.443,0.631
	c-3.947-2.804-7.898-5.609-11.849-8.412c-8.885-6.307-17.766-12.613-26.648-18.917c-9.363-6.645-18.723-13.289-28.085-19.937
	c-5.191-3.683-10.382-7.371-15.572-11.054c6.994-8.842,14.994-16.848,23.829-23.853
	C780.901,202.226,783.422,205.775,785.939,209.325z M753.439,223.969c0.806,0.574,1.613,1.145,2.422,1.719
	c6.954,4.937,13.909,9.874,20.863,14.814c9.659,6.855,19.318,13.712,28.977,20.567c8.342,5.922,16.684,11.842,25.028,17.764
	c2.42,1.719,4.842,3.438,7.261,5.156c0.961,0.683,1.782,1.172,2.458,2.127c3.817,5.377,7.635,10.757,11.45,16.133
	c-0.523,0.075-1.045,0.152-1.565,0.227c-0.508,0.073-0.983,0.947-0.732,1.404c0.299,0.546,0.598,1.088,0.896,1.631
	c0.184,0.334,0.631,0.862,0.684,1.243c-0.134,0.408-0.204,1.577-0.701,1.662c-0.168,0.028-0.338,0.056-0.506,0.084
	c-0.806,0.138-1.61,0.274-2.416,0.409c-5.359,0.909-10.718,1.82-16.078,2.725c-0.735,0.127-1.873,0.556-2.626,0.429
	c-0.462-0.077-0.923-0.154-1.388-0.235c-2.592-0.44-5.188-0.88-7.778-1.32c-9.726-1.652-19.455-3.303-29.184-4.951
	c-11.736-1.989-23.466-3.982-35.203-5.972c-8.876-1.507-17.753-3.01-26.63-4.517c-1.434-0.244-2.869-0.486-4.307-0.733
	C727.688,268.052,738.027,243.953,753.439,223.969z M847.836,311.515c0.313,0.263,0.626,0.524,0.939,0.789
	c0.497,0.418,0.996,0.834,1.49,1.25c0.018,0.299,0.408,2.211-0.388,2.081c-0.43-0.074-0.855-0.148-1.284-0.218
	c-1.817-0.306-3.636-0.616-5.451-0.926c-2.933-0.497-5.862-0.994-8.798-1.494c4.416-0.746,8.837-1.499,13.255-2.25
	C847.561,311.233,847.505,311.236,847.836,311.515z M736.987,298.324c10.74,1.82,21.48,3.645,32.221,5.469
	c11.319,1.919,22.637,3.841,33.957,5.764c6.515,1.105,13.026,2.211,19.54,3.317c0.253,0.043,0.507,0.085,0.761,0.127
	c-4.774,0.81-9.553,1.62-14.328,2.43c-10.736,1.824-21.476,3.645-32.212,5.468c-11.317,1.923-22.635,3.842-33.952,5.761
	c-6.25,1.063-12.497,2.124-18.75,3.179c-0.659-5.612-1.007-11.316-1.007-17.106c0-5.609,0.327-11.141,0.946-16.581
	C728.441,296.873,732.718,297.598,736.987,298.324z M754.847,403.294c3.49-2.476,6.973-4.951,10.462-7.426
	c8.884-6.307,17.769-12.61,26.651-18.917c9.364-6.648,18.724-13.289,28.087-19.937c5.388-3.821,10.774-7.649,16.162-11.473
	c0.211-0.147,0.419-0.295,0.631-0.446c-2.804,3.95-5.61,7.901-8.413,11.853c-6.303,8.876-12.61,17.76-18.912,26.641
	c-6.645,9.359-13.29,18.719-19.935,28.078c-3.634,5.12-7.264,10.236-10.897,15.353C769.852,420.059,761.854,412.087,754.847,403.294
	z M780.122,428.133c1.564-2.201,3.131-4.408,4.694-6.608c5.774-8.138,11.55-16.269,17.32-24.406
	c6.881-9.694,13.762-19.384,20.644-29.077c5.133-7.233,10.263-14.458,15.396-21.688c1.019-1.437,2.04-2.87,3.057-4.307
	c0.338-0.475,0.99-0.778,1.454-1.102c2.113-1.5,4.222-3,6.332-4.497c2.187-1.549,4.37-3.102,6.556-4.651
	c0.536-0.38,1.07-0.761,1.605-1.138c0.37-0.264,0.688,0.61,1.015,0.468c0.482-0.214,0.965-0.422,1.45-0.633
	c0.543-0.233,1.085-0.472,1.627-0.708c0.33-0.144,1.55,0.331,1.701,0.662c0.453,1.021,0.912,2.043,1.37,3.063
	c0.105,0.236,0.418-0.063,0.475,0.264c0.046,0.268,0.092,0.536,0.138,0.807c0.168,0.997,0.337,1.99,0.506,2.986
	c0.846,4.961,1.686,9.916,2.525,14.88c0.174,1.025-0.232,2.197-0.405,3.208c-1.313,7.725-2.622,15.454-3.932,23.177
	c-1.962,11.556-3.924,23.109-5.882,34.669c-1.784,10.521-3.57,21.046-5.354,31.567c-0.681,4.004-1.36,8-2.04,12.003
	C824.138,453.768,800.084,443.479,780.122,428.133z M852.182,457.275c0.704-4.148,1.404-8.289,2.108-12.434
	c1.821-10.729,3.641-21.454,5.462-32.184c1.923-11.317,3.841-22.638,5.764-33.955c1.109-6.54,2.218-13.081,3.328-19.621
	c0.046-0.263,0.088-0.528,0.134-0.792c0.81,4.775,1.623,9.553,2.434,14.331c1.824,10.743,3.644,21.487,5.471,32.226
	c1.923,11.325,3.843,22.649,5.765,33.966c1.039,6.13,2.081,12.261,3.123,18.392c-5.599,0.658-11.289,1-17.063,1
	C863.114,458.212,857.604,457.888,852.182,457.275z M951.849,416.447c-6.303-8.881-12.609-17.764-18.916-26.648
	c-6.647-9.36-13.289-18.723-19.937-28.089c-3.825-5.385-7.648-10.775-11.473-16.163c-0.147-0.212-0.299-0.416-0.446-0.627
	c3.949,2.804,7.9,5.606,11.848,8.41c8.881,6.306,17.765,12.609,26.646,18.916c9.355,6.644,18.719,13.285,28.081,19.93
	c5.061,3.596,10.12,7.184,15.18,10.778c-6.965,8.796-14.919,16.769-23.705,23.744C956.698,423.285,954.271,419.866,951.849,416.447z
	 M983.948,401.517c-0.161-0.116-0.327-0.233-0.493-0.352c-6.278-4.459-12.56-8.916-18.841-13.374
	c-9.529-6.765-19.058-13.529-28.586-20.293c-8.754-6.215-17.511-12.427-26.261-18.642c-3.962-2.81-7.919-5.623-11.878-8.434
	c-0.182-0.127-0.334-0.461-0.461-0.641c-0.527-0.75-1.063-1.497-1.592-2.246c-1.645-2.31-3.285-4.624-4.923-6.94
	c-1.43-2.011-2.858-4.025-4.284-6.036c-0.269-0.373-0.529-0.746-0.797-1.116c-0.223-0.313-0.295-0.888-0.411-1.247
	c-0.054-0.154-0.198-0.405-0.19-0.57c0.141-0.253,0.506-1.344,0.747-1.426c0.908-0.31,1.812-0.62,2.718-0.93
	c0.577-0.2,0.584-0.158,0.773-0.807c0.212-0.746-0.021-0.831-0.489-1.401c4.289-0.725,8.575-1.455,12.857-2.179
	c2.15-0.367,4.307-0.732,6.46-1.099c0.406-0.07,0.616-0.091,1.005-0.025c5.894,1,11.785,1.997,17.68,3.001
	c11.007,1.866,22.019,3.736,33.029,5.605c11.26,1.912,22.524,3.821,33.793,5.732c6.397,1.088,12.8,2.173,19.193,3.26
	C1009.652,357.568,999.326,381.589,983.948,401.517z M1000.798,327.448c-10.744-1.824-21.483-3.648-32.22-5.473
	c-11.32-1.918-22.638-3.841-33.958-5.76c-6.516-1.105-13.025-2.211-19.543-3.316c-0.25-0.043-0.508-0.085-0.757-0.13
	c4.771-0.811,9.55-1.62,14.324-2.43c10.739-1.824,21.476-3.645,32.212-5.469c11.317-1.918,22.632-3.841,33.948-5.76
	c6.138-1.039,12.274-2.084,18.412-3.126c0.631,5.496,0.962,11.078,0.962,16.743c0,5.69-0.338,11.304-0.972,16.825
	C1009.076,328.849,1004.935,328.149,1000.798,327.448z"/>
<text transform="matrix(1 0 0 1 1043.001 469.7656)" fill="#267ABD" font-family="'Heebo-Thin'" font-size="600">ad</text>
<line fill="none" x1="135.714" y1="469.766" x2="1752.381" y2="469.766"/>
</svg>
